<svg xmlns="http://www.w3.org/2000/svg"
shape-rendering="geometricPrecision"
width="4000" height="4000" viewBox="0 0 1024 1024">
  <metadata>null</metadata>

<path d="
M 128.432 803.045
C 132.04 796.731 136.295 790.635 140.235 784.512
C 145.681 776.048 150.72 767.308 156.073 758.782
C 159.226 753.758 162.441 748.765 165.502 743.683
C 167.121 740.994 168.598 738.052 170.591 735.618
C 172.251 734.306 176.467 733.798 178.579 733.465
C 183.805 750.727 188.39 768.256 194.061 785.388
C 195.476 789.661 196.754 793.99 198.358 798.198
C 198.649 798.962 200.229 801.527 199.866 802.191
C 197.022 802.726 194.079 803.645 191.254 804.37
C 190.317 804.61 188.775 805.353 187.828 805.126
C 186.729 797.282 182.583 789.899 181.271 782.127
C 177.848 781.419 173.514 782.058 170.003 782.061
C 163.027 782.068 155.889 781.799 148.931 782.234
C 146.294 786.435 143.977 790.856 141.458 795.135
C 139.843 797.881 137.739 800.72 136.644 803.717
C 136.163 804.082 135.092 803.81 134.497 803.802
C 132.37 803.775 130.224 803.857 128.104 803.723
C 128.213 803.497 128.322 803.271 128.432 803.045 Z
M 152.288 776.658
C 152.252 776.811 152.216 776.963 152.18 777.115
C 158.546 777.364 165.104 776.937 171.504 776.942
C 174.073 776.944 177.261 776.501 179.766 777.097
C 179.882 775.199 178.52 772.789 178.019 770.971
C 176.701 766.185 175.227 761.443 173.845 756.676
C 173.057 753.958 172.234 751.248 171.48 748.521
C 171.33 747.977 170.958 745.304 170.346 746.115
C 167.111 752.416 163.046 758.376 159.442 764.476
C 157.086 768.463 155.047 772.945 152.288 776.658 Z"
opacity="1" fill="rgb(83,83,83)" fill-rule="evenodd" />
<path d="
M 247.482 770.605
C 248.403 764.945 249.581 759.596 252.446 754.527
C 259.046 742.848 271.192 734.807 284.583 733.525
C 293.486 732.673 302.661 733.876 309.938 739.419
C 311.651 740.723 313.242 742.335 314.402 744.151
C 314.811 744.791 315.57 745.743 315.446 746.527
C 315.014 747.616 313.734 748.593 312.958 749.464
C 311.14 751.504 309.343 753.57 307.514 755.585
C 305.4 751.005 304.905 746.468 301.036 742.756
C 292.919 734.968 279.142 738.26 271.4 744.642
C 261.504 752.799 258.367 766.927 259.858 779.125
C 261.113 789.392 267.213 797.794 277.882 799.301
C 282.254 799.918 286.86 799.294 291.047 797.988
C 296.8 796.195 301.794 792.48 306.056 788.316
C 306.892 789.169 309.343 791.571 309.145 792.788
C 294.733 809.441 261.05 809.982 250.569 788.683
C 249.397 786.301 248.534 783.761 248.061 781.149
C 247.432 777.679 247.073 774.126 247.482 770.605 Z"
opacity="1" fill="rgb(83,83,82)" fill-rule="evenodd" />
<path d="
M 319.464 925.087
C 321.081 920.046 321.481 914.323 322.416 909.113
C 324.754 896.09 326.47 882.872 327.725 869.704
C 328.049 866.303 328.342 862.896 328.533 859.484
C 328.603 858.235 328.405 856.952 328.662 855.722
C 335.731 855.8 342.901 855.722 349.96 855.537
C 357.837 855.33 365.845 855.754 372.62 860.154
C 385.963 868.82 381.284 888.336 369.722 896.338
C 364.686 899.822 358.718 901.982 352.635 902.625
C 346.578 903.266 340.462 902.606 334.396 902.954
C 333.643 904.831 333.786 907.441 333.569 909.45
C 333.014 914.591 332.971 920.194 331.92 925.233
C 330.937 925.836 329.124 925.716 327.982 925.878
C 325.043 926.296 322.017 927.135 319.047 927.181
C 319.203 926.486 319.293 925.776 319.464 925.087 Z
M 334.963 896.614
C 334.868 897.363 334.917 896.985 334.817 897.748
C 343.528 898.754 354.666 898.889 361.8 893.069
C 369.661 886.657 372.963 870.205 363.341 863.661
C 358.899 860.64 353.137 860.823 347.996 860.784
C 345.41 860.764 342.725 860.582 340.178 861.086
C 339.599 862.001 339.73 863.278 339.539 864.324
C 339.085 866.808 338.9 869.352 338.55 871.855
C 337.397 880.096 336.341 888.412 334.963 896.614 Z"
opacity="1" fill="rgb(83,83,82)" fill-rule="evenodd" />
<path d="
M 324.974 804.599
C 327.764 788.098 330.52 771.62 332.427 754.991
C 333.182 748.411 334.293 741.771 334.622 735.155
C 338.477 734.409 343.139 733.512 347.064 733.846
C 347.256 734.602 346.741 735.65 346.612 736.409
C 346.238 738.607 345.738 740.782 345.375 742.983
C 344.102 750.681 343.155 758.453 341.79 766.126
C 354.103 767.056 366.701 764.84 379.028 765.979
C 380.097 763.072 379.974 759.111 380.331 756.027
C 381.131 749.104 381.751 742.14 382.637 735.226
C 386.54 734.567 391.116 733.49 395.081 733.857
C 395.446 735.154 394.071 738.335 393.783 739.737
C 392.841 744.323 392.092 748.972 391.333 753.591
C 389.514 764.669 388.386 775.829 387.341 786.992
C 387.002 790.614 386.535 794.24 386.281 797.868
C 386.163 799.557 386.311 801.512 385.806 803.133
C 381.673 803.717 377.581 804.775 373.465 805.341
C 373.17 804.925 373.677 803.529 373.776 802.995
C 374.176 800.83 374.529 798.661 374.879 796.488
C 375.633 791.805 376.185 787.092 376.886 782.401
C 377.418 778.849 378.21 775.118 378.288 771.532
C 369.316 770.923 359.983 771.176 351.001 771.514
C 347.85 771.632 343.84 770.844 340.835 771.832
C 340.124 779.822 338.92 787.798 338.091 795.785
C 337.84 798.212 337.292 800.834 337.253 803.25
C 334.442 803.617 331.468 803.714 328.704 804.354
C 327.785 804.567 325.708 805.554 324.829 805.182
C 324.877 804.988 324.925 804.793 324.974 804.599 Z"
opacity="1" fill="rgb(84,84,83)" fill-rule="evenodd" />
<path d="
M 334.965 468.615
C 335.958 447.795 340.212 426.564 348.958 407.55
C 361.364 380.578 379.514 356.686 403.502 338.957
C 427.737 321.044 457.101 309.23 487.021 305.558
C 540.524 298.994 597.011 318.529 634.346 357.58
C 650.132 374.092 661.826 393.917 669.822 415.247
C 678.112 437.36 681.864 460.566 680.735 484.171
C 679.6 507.894 673.517 530.968 663.336 552.399
C 654.366 571.278 640.897 588.839 625.412 602.846
C 587.671 636.986 535.557 653.097 485.067 646.471
C 467.97 644.227 451.44 639.227 435.663 632.331
C 412.672 622.282 392.068 606.429 375.443 587.763
C 360.91 571.446 350.602 551.731 343.432 531.189
C 336.519 511.385 333.969 489.515 334.965 468.615 Z
M 347.562 475.141
C 347.552 475.329 347.542 475.516 347.531 475.703
C 376.427 471.388 404.832 464.137 433.371 457.965
C 443.384 455.799 453.339 453.23 463.488 451.766
C 463.696 451.166 462.76 449.803 462.482 449.225
C 461.315 446.797 460.214 444.341 459.129 441.876
C 456.561 436.036 454.18 430.087 451.422 424.331
C 449.671 420.677 447.565 417.201 445.794 413.562
C 450.828 416.934 454.878 422.238 459.192 426.478
C 463.567 430.778 467.995 435.039 472.305 439.402
C 474.426 441.549 476.832 443.597 478.649 446.01
C 478.399 443.772 479.606 440.728 480.012 438.501
C 481.157 432.217 482.516 425.967 483.729 419.695
C 488.216 396.507 492.905 373.338 498.024 350.281
C 499.742 342.543 501.422 334.766 502.863 326.973
C 503.402 324.055 504.905 320.4 504.633 317.425
C 442.431 318.32 383.243 358.117 359.762 415.911
C 354.465 428.951 350.775 442.526 348.906 456.485
C 348.392 460.325 347.972 464.229 347.798 468.101
C 347.695 470.409 347.926 472.864 347.562 475.141 Z
M 347.945 480.974
C 347.834 481.095 347.722 481.217 347.611 481.338
C 348.272 486.493 348.202 491.733 348.958 496.9
C 351.27 512.72 355.144 528.288 361.826 542.868
C 381.253 585.257 420.444 616.737 465.154 629.142
C 479.161 633.028 493.309 634.396 507.768 634.86
C 507.198 629.144 505.724 623.515 504.708 617.864
C 502.098 603.342 498.882 588.955 495.727 574.548
C 493.326 563.583 490.706 552.671 488.323 541.702
C 486.845 534.897 485.78 527.907 483.953 521.189
C 481.914 521.068 478.603 523.662 476.722 524.538
C 470.036 527.653 463.483 531.235 456.947 534.66
C 454.85 535.758 452.771 536.91 450.742 538.124
C 449.893 538.632 449.074 539.401 448.053 539.067
C 449.486 536.435 452.552 534.216 454.622 532.045
C 459.23 527.213 463.876 522.418 468.476 517.58
C 470.578 515.369 472.664 513.142 474.783 510.948
C 475.213 510.504 477.864 507.935 477.667 507.834
C 447.227 501.283 416.651 495.2 386.119 489.053
C 376.889 487.195 367.713 485.075 358.493 483.167
C 354.99 482.442 351.508 481.343 347.945 480.974 Z
M 359.287 478.054
C 360.261 478.712 361.399 478.685 362.528 478.854
C 364.49 479.148 366.507 479.536 368.45 479.938
C 376.199 481.542 383.988 483.014 391.741 484.625
C 413.365 489.12 434.929 493.998 456.594 498.279
C 462.766 499.499 468.903 500.91 475.052 502.239
C 477.247 502.713 480.175 504.031 482.389 503.859
C 487.96 497.259 494.518 491.386 500.684 485.345
C 502.552 483.514 504.441 481.705 506.313 479.881
C 507.001 479.211 507.999 478.576 508.482 477.75
C 508.196 477.039 507.09 477.225 506.46 477.195
C 504.48 477.101 502.485 477.116 500.503 477.106
C 492.003 477.065 483.501 477.092 475.001 477.142
C 446.513 477.309 418.018 477.366 389.529 477.369
C 382.101 477.37 374.693 477.561 367.272 477.65
C 365.359 477.673 363.453 477.627 361.54 477.701
C 360.823 477.729 359.849 477.611 359.287 478.054 Z
M 483.473 449.605
C 483.403 450.073 483.415 449.834 483.444 450.321
C 484.995 452.532 487.409 454.364 489.307 456.296
C 493.082 460.139 496.838 464.003 500.661 467.798
C 503.598 470.712 506.685 473.537 509.047 476.933
C 509.908 476.785 509.351 475.641 509.226 475.124
C 508.747 473.139 508.872 471.018 508.882 468.997
C 508.922 460.331 508.815 451.668 508.799 443.003
C 508.752 417.671 508.822 392.337 508.643 367.006
C 508.586 359.034 508.664 351.057 508.532 343.086
C 508.464 338.988 508.759 334.413 507.878 330.411
C 504.983 339.294 503.826 349.171 502.1 358.352
C 498.715 376.363 494.447 394.21 490.784 412.166
C 488.956 421.125 487.146 430.093 485.441 439.076
C 484.777 442.577 484.346 446.147 483.473 449.605 Z
M 508.95 478.036
C 507.961 486.344 508.82 495.141 508.934 503.509
C 509.11 516.338 508.943 529.179 508.961 542.009
C 508.985 559.008 508.94 576.007 508.94 593.006
C 508.94 603.083 508.486 613.498 509.464 623.528
C 510.144 623.033 510.142 621.769 510.276 621.01
C 510.613 619.106 511.071 617.225 511.408 615.32
C 512.727 607.864 514.515 600.469 515.936 593.027
C 520.05 571.479 525.016 550.04 529.457 528.552
C 530.704 522.52 531.98 516.49 533.158 510.444
C 533.593 508.209 534.563 505.86 534.73 503.606
C 532.934 501.123 530.282 499.057 528.121 496.891
C 524.068 492.83 520.127 488.655 516.125 484.543
C 514.539 482.914 510.116 479.735 510.414 477.292
C 513.979 476.782 517.9 477.162 521.508 477.163
C 528.17 477.165 534.841 477.111 541.504 477.019
C 567.825 476.657 594.175 476.841 620.503 476.757
C 629.195 476.73 637.859 476.595 646.545 476.386
C 648.529 476.339 650.516 476.292 652.5 476.279
C 652.902 476.276 654.386 476.419 654.506 475.986
C 652.015 474.498 647.865 474.294 645.017 473.734
C 639.192 472.588 633.407 471.196 627.603 469.953
C 607.142 465.573 586.636 461.421 566.177 457.028
C 558.924 455.47 551.675 453.901 544.418 452.357
C 542.574 451.965 540.692 451.703 538.868 451.233
C 537.824 450.965 536.514 450.374 535.459 450.61
C 532.777 452.419 530.616 455.284 528.395 457.616
C 524.714 461.481 520.866 465.182 517.154 469.016
C 514.78 471.468 511.013 474.034 509.465 477.067
C 509.316 477.407 509.125 477.709 508.95 478.036 Z
M 509.965 318.678
C 510.476 325.872 512.717 333.077 514.141 340.128
C 517.903 358.749 522.11 377.273 526.241 395.813
C 528.163 404.436 529.843 413.106 531.68 421.747
C 532.387 425.075 532.554 429.284 533.991 432.36
C 542.137 428.091 550.528 424.159 558.783 420.09
C 562.787 418.116 566.534 415.12 570.696 413.556
C 570.676 414.677 569.343 415.541 568.603 416.267
C 566.771 418.065 565.057 420.014 563.286 421.873
C 557.978 427.445 552.59 432.947 547.206 438.445
C 545.014 440.684 541.275 443.278 540.01 446.145
C 568.049 451.924 596.074 457.919 624.115 463.77
C 633.832 465.797 643.54 467.806 653.28 469.732
C 657.942 470.653 662.837 472.329 667.567 472.704
C 667.812 407.957 623.398 346.593 561.762 326.816
C 549.524 322.889 537.302 319.537 524.466 318.236
C 519.924 317.776 514.209 316.455 509.813 317.871
C 509.864 318.14 509.914 318.409 509.965 318.678 Z
M 512.947 633.088
C 512.87 633.649 512.789 634.209 512.7 634.768
C 516.918 635.242 521.804 634.215 526.018 633.758
C 538.122 632.445 550.001 629.847 561.468 625.724
C 572.66 621.7 583.529 616.815 593.639 610.503
C 625.336 590.715 649.143 560.104 660.465 524.505
C 663.728 514.248 665.843 503.679 666.858 492.966
C 667.34 487.883 667.19 482.738 667.678 477.674
C 650.846 480.439 634.312 484.392 617.68 488.147
C 608.474 490.226 599.208 492.154 590.044 494.405
C 581.879 496.41 573.635 498.126 565.401 499.83
C 561.554 500.626 557.233 502.245 553.316 502.297
C 557.206 510.543 561.047 518.809 565.013 527.02
C 566.479 530.055 568.1 533.042 569.697 536.01
C 569.923 536.429 571.618 538.749 571.068 538.935
C 569.819 538.458 568.768 537.122 567.849 536.181
C 565.889 534.175 563.912 532.195 561.883 530.259
C 556.65 525.267 551.637 520.075 546.544 514.947
C 544.207 512.594 541.384 510.404 539.279 507.875
C 538.17 515.481 536.342 523.076 534.761 530.605
C 531.615 545.579 528.467 560.545 525.265 575.507
C 522.468 588.577 519.37 601.587 516.72 614.688
C 515.485 620.791 514.514 627.066 512.947 633.088 Z"
opacity="1" fill="rgb(83,84,83)" fill-rule="evenodd" />
<path d="
M 364.428 443.577
C 365.655 439.601 366.422 435.465 367.641 431.468
C 369.567 425.15 372.21 418.921 375.112 412.995
C 389.039 384.558 412.033 361.242 440.132 346.655
C 448.174 342.479 456.573 339.206 465.239 336.58
C 469.377 335.326 474.139 333.525 478.513 333.681
C 479.261 335.744 480.224 338.503 480.312 340.697
C 476.166 340.946 471.615 342.378 467.653 343.594
C 460.099 345.911 452.928 348.585 445.786 351.978
C 416.369 365.954 391.876 391.703 379.299 421.695
C 375.855 429.908 372.453 438.906 371.174 447.764
C 370.74 448.014 369.599 447.408 369.146 447.263
C 367.493 446.731 365.846 446.108 364.165 445.692
C 364.096 444.95 364.247 444.296 364.428 443.577 Z"
opacity="1" fill="rgb(83,83,82)" fill-rule="evenodd" />
<path d="
M 364.407 507.984
C 366.429 507.041 368.55 506.573 370.636 505.839
C 371.507 506.739 371.671 509.483 371.997 510.71
C 373.048 514.659 374.171 518.564 375.434 522.452
C 378.976 533.351 384.34 544.341 390.925 553.731
C 406.091 575.36 427.181 592.904 451.605 603.185
C 457.856 605.816 464.203 607.976 470.75 609.725
C 473.696 610.512 477.221 610.654 480.004 611.871
C 479.576 614.15 479.405 616.775 478.488 618.924
C 475.203 618.828 471.725 617.504 468.57 616.681
C 459.693 614.366 451.138 611.105 442.875 607.139
C 416.056 594.265 392.515 573.145 378.239 546.907
C 371.567 534.644 367.381 521.78 364.034 508.303
C 364.159 508.197 364.283 508.09 364.407 507.984 Z"
opacity="1" fill="rgb(82,82,82)" fill-rule="evenodd" />
<path d="
M 391.489 925.159
C 392.711 922.899 393.19 919.959 393.661 917.449
C 394.517 912.886 395.231 908.294 395.948 903.707
C 397.492 893.831 398.689 883.908 399.873 873.985
C 400.576 868.091 401.417 862.078 401.603 856.143
C 405.708 855.011 410.153 855.172 414.32 854.447
C 413.222 863.165 411.321 871.872 409.882 880.547
C 407.707 893.664 406.099 906.934 404.671 920.144
C 406.918 920.386 409.416 919.917 411.697 919.895
C 418.386 919.833 425.016 919.653 431.668 918.896
C 436.236 918.377 440.794 917.23 445.378 916.986
C 444.919 919.802 443.867 922.803 442.991 925.523
C 441.51 925.827 439.795 925.525 438.285 925.543
C 434.192 925.591 430.099 925.566 426.005 925.56
C 414.456 925.543 402.904 925.567 391.355 925.583
C 391.4 925.442 391.444 925.301 391.489 925.159 Z"
opacity="1" fill="rgb(83,83,82)" fill-rule="evenodd" />
<path d="
M 402.489 803.09
C 404.513 799.209 407.306 795.638 409.595 791.901
C 414.237 784.325 419.033 776.844 423.681 769.272
C 428.563 761.317 433.641 753.483 438.64 745.601
C 440.683 742.38 442.399 738.8 444.666 735.74
C 446.328 734.104 450.4 733.756 452.631 733.245
C 453.732 735.385 454.092 738.165 454.757 740.482
C 456.135 745.287 457.513 750.137 459.083 754.883
C 464.3 770.641 469.108 786.566 474.284 802.334
C 471.456 802.861 468.597 803.729 465.787 804.399
C 464.83 804.627 463.281 805.364 462.32 805.135
C 461.723 800.878 459.864 796.452 458.62 792.331
C 457.645 789.098 457.078 785.446 455.584 782.405
C 454.995 782.082 453.899 782.304 453.228 782.315
C 451.319 782.345 449.408 782.364 447.499 782.373
C 441.623 782.4 435.742 782.347 429.868 782.517
C 427.766 782.577 424.698 781.996 422.746 782.7
C 421.446 783.958 420.661 786.019 419.727 787.561
C 417.439 791.338 415.331 795.222 413.085 799.024
C 412.372 800.229 411.516 803.017 410.429 803.797
C 407.707 803.922 404.837 803.867 402.12 803.686
C 402.243 803.488 402.366 803.289 402.489 803.09 Z
M 426.437 776.643
C 426.358 776.826 426.279 777.009 426.2 777.191
C 432.63 777.233 439.07 777.257 445.504 777.238
C 448.269 777.23 451.188 777.514 453.933 777.241
C 454.194 775.277 452.574 772.364 452.083 770.453
C 450.613 764.727 448.997 758.939 447.131 753.331
C 446.536 751.541 446.149 749.681 445.502 747.912
C 445.269 747.277 445.477 746.103 444.636 746.299
C 441.335 752.486 437.272 758.348 433.71 764.403
C 431.319 768.469 429.087 772.744 426.437 776.643 Z"
opacity="1" fill="rgb(82,83,82)" fill-rule="evenodd" />
<path d="
M 454.757 925.694
C 456.09 923.992 457.058 921.929 458.222 920.102
C 460.792 916.069 463.388 912.053 465.955 908.017
C 472.853 897.176 479.788 886.32 486.449 875.333
C 489.091 870.976 491.822 866.672 494.476 862.322
C 495.459 860.713 496.413 857.994 497.949 856.885
C 499.844 855.516 503.291 855.033 505.535 854.35
C 505.834 856.274 506.772 858.325 507.301 860.227
C 508.544 864.691 509.805 869.141 511.15 873.577
C 514.89 885.911 518.612 898.333 522.926 910.48
C 524.474 914.842 526.944 919.459 527.92 923.959
C 527.1 924.564 525.295 924.883 524.291 925.165
C 521.528 925.941 518.726 926.582 515.981 927.415
C 515.03 925.598 514.789 923.186 514.222 921.212
C 512.66 915.765 511.428 909.857 509.192 904.654
C 498.135 905.717 486.796 903.812 475.721 904.639
C 474.205 906.025 473.216 908.477 472.219 910.254
C 470.312 913.653 468.22 916.949 466.329 920.358
C 465.496 921.858 464.62 924.655 463.37 925.781
C 460.684 926.127 457.457 925.914 454.757 925.694 Z
M 479.496 898.058
C 479.146 898.836 479.274 898.432 479.111 899.27
C 488.409 899.834 498.125 899.737 507.432 899.321
C 507.081 896.618 505.73 893.755 504.906 891.152
C 503.246 885.91 501.851 880.581 500.149 875.354
C 499.574 873.588 498.949 871.822 498.433 870.042
C 498.221 869.31 498.312 868.22 497.363 868.281
C 491.3 878.137 485.555 888.199 479.496 898.058 Z"
opacity="1" fill="rgb(83,83,83)" fill-rule="evenodd" />
<path d="
M 488.932 803.079
C 491.528 787.776 493.986 772.501 495.997 757.105
C 496.907 750.131 498.992 741.252 496.388 734.488
C 499.8 734.252 503.304 734.313 506.725 734.381
C 510.013 738.185 512.368 743.159 515.23 747.315
C 523.945 759.97 531.957 773.235 541.132 785.557
C 541.05 784.309 541.592 783.051 541.708 781.818
C 542.078 777.92 542.716 774.023 543.204 770.136
C 544.679 758.378 546.233 746.514 547.014 734.689
C 548.237 733.654 551.823 734.388 553.457 734.383
C 553.869 734.381 554.951 734.226 555.269 734.512
C 553.572 746.304 551.155 758.011 549.64 769.851
C 548.147 781.514 547.232 793.324 545.395 804.925
C 544.03 804.899 541.679 804.639 540.452 804.005
C 539.321 803.42 538.42 801.509 537.714 800.491
C 535.6 797.445 533.616 794.309 531.538 791.238
C 524.672 781.094 517.912 770.856 510.816 760.87
C 509.064 758.404 507.263 755.93 505.644 753.375
C 504.908 752.212 504.176 750.368 503.001 749.621
C 501.617 761.47 500.149 773.3 498.89 785.17
C 498.238 791.319 498.004 797.642 497.057 803.741
C 496.334 803.943 495.26 803.726 494.498 803.732
C 492.612 803.748 490.638 803.936 488.764 803.79
C 488.82 803.553 488.876 803.316 488.932 803.079 Z"
opacity="1" fill="rgb(84,84,84)" fill-rule="evenodd" />
<path d="
M 536.86 340.731
C 537.607 338.557 537.8 336.239 538.552 334.069
C 539.205 333.546 540.377 333.932 541.168 334.089
C 543.486 334.549 545.739 335.229 548.032 335.785
C 558.011 338.203 567.621 342.168 576.748 346.822
C 596.431 356.86 613.633 371.501 626.78 389.248
C 632.612 397.119 637.332 405.995 641.485 414.838
C 644.811 421.921 647.433 429.307 649.371 436.884
C 649.994 439.32 651.484 442.711 651.193 445.24
C 648.971 445.585 646.601 446.702 644.479 447.473
C 644.045 444.609 643.056 441.733 642.311 438.93
C 639.913 429.903 636.596 421.081 632.308 412.776
C 617.876 384.817 595.145 362.398 566.098 349.854
C 556.864 345.866 547.066 342.444 537.084 340.9
C 537.009 340.843 536.935 340.787 536.86 340.731 Z"
opacity="1" fill="rgb(82,82,82)" fill-rule="evenodd" />
<path d="
M 537.305 611.44
C 544.686 609.723 552.132 608.209 559.239 605.505
C 589.389 594.032 615.037 571.97 630.501 543.659
C 637.169 531.45 641.119 518.61 644.846 505.297
C 646.636 505.66 650.27 506.574 651.467 507.924
C 650.047 516.002 647.331 523.844 644.308 531.447
C 631.566 563.492 607.378 589.315 576.977 605.345
C 569.158 609.468 561.008 612.89 552.54 615.421
C 548.371 616.667 543.397 618.512 539.011 618.524
C 538.384 616.297 537.853 613.892 537.015 611.747
C 537.112 611.645 537.208 611.542 537.305 611.44 Z"
opacity="1" fill="rgb(83,83,82)" fill-rule="evenodd" />
<path d="
M 542.969 925.119
C 545.596 909.632 547.93 894.077 549.875 878.489
C 550.822 870.901 552.582 862.807 550.805 855.244
C 554.273 855.296 557.829 854.908 561.287 855.264
C 565.579 862.563 570.541 869.548 575.204 876.618
C 581.986 886.901 588.805 897.274 596.169 907.147
C 596.53 906.525 596.304 905.319 596.473 904.596
C 597.167 901.638 597.433 898.478 597.813 895.46
C 598.974 886.249 600.134 877.045 601.121 867.812
C 601.439 864.837 601.742 861.855 602.028 858.876
C 602.145 857.662 601.966 856.195 602.496 855.093
C 605.051 854.787 607.752 854.878 610.314 855.102
C 609.325 863.312 607.511 871.478 606.338 879.675
C 604.114 895.219 602.322 910.84 600.383 926.418
C 598.818 926.476 596.678 926.218 595.167 925.812
C 593.863 924.863 593.06 922.999 592.154 921.684
C 590.232 918.895 588.4 916.048 586.505 913.241
C 579.806 903.32 573.132 893.384 566.273 883.576
C 563.966 880.277 561.695 876.958 559.421 873.636
C 559.04 873.079 557.696 870.525 557.178 870.755
C 557.183 874.322 556.415 878.001 555.936 881.543
C 555.197 887.017 554.583 892.51 553.896 897.991
C 553.145 903.982 552.539 909.992 551.879 915.994
C 551.53 919.169 551.501 922.442 550.884 925.574
C 548.238 926.004 545.471 925.298 542.822 925.693
C 542.871 925.502 542.92 925.31 542.969 925.119 Z"
opacity="1" fill="rgb(83,83,82)" fill-rule="evenodd" />
<path d="
M 567.906 770.101
C 568.672 766.163 569.275 762.248 570.958 758.553
C 577.3 744.634 590.792 735.064 606.009 733.625
C 614.734 732.8 623.458 734.254 630.595 739.532
C 632.447 740.902 634.16 742.518 635.413 744.461
C 635.755 744.991 636.39 745.641 636.278 746.312
C 635.019 748.908 632.244 751.219 630.375 753.406
C 630.033 753.807 628.911 755.652 628.368 755.165
C 627.238 750.577 624.815 745.379 621.101 742.324
C 613.819 736.333 601.726 738.007 594.408 742.983
C 583.387 750.478 578.753 763.856 579.691 776.767
C 580.379 786.237 584.45 794.966 593.904 798.312
C 596.062 799.075 598.174 799.337 600.441 799.486
C 605.062 799.79 609.909 798.919 614.267 797.365
C 615.681 796.861 617.607 796.308 618.748 795.308
C 619.475 792.926 619.397 790.069 619.709 787.594
C 620.413 782.017 621.058 776.408 621.872 770.847
C 624.118 770.526 626.386 770.341 628.641 770.082
C 629.839 769.944 631.238 769.5 632.411 769.844
C 631.797 775.749 630.699 781.603 629.909 787.491
C 629.501 790.527 629.782 794.356 628.691 797.208
C 626.175 798.943 622.829 800.058 619.997 801.185
C 604.609 807.308 582.77 807.297 572.712 791.888
C 570.67 788.758 569.35 785.332 568.453 781.723
C 567.52 777.972 567.457 773.928 567.906 770.101 Z"
opacity="1" fill="rgb(84,84,83)" fill-rule="evenodd" />
<path d="
M 621.898 913.57
C 623.169 911.39 625.337 909.625 627.102 907.844
C 628.236 906.699 629.339 905.286 630.698 904.416
C 631.118 904.721 631.192 905.736 631.26 906.206
C 631.457 907.575 631.727 908.9 632.144 910.221
C 633.323 913.954 635.31 916.874 638.631 918.992
C 645.34 923.269 655.46 922.761 662.223 918.78
C 666.877 916.041 670.25 910.645 668.699 905.126
C 667.297 900.136 661.599 898.174 657.219 896.611
C 648.756 893.592 635.462 892.368 631.847 882.574
C 631.286 881.054 630.991 879.425 630.873 877.812
C 630.697 875.379 631.046 872.952 631.847 870.652
C 637.043 855.733 654.546 852.444 668.389 855.073
C 672.956 855.941 677.068 857.687 680.671 860.665
C 681.881 861.665 683.74 863.286 683.844 864.973
C 683.581 865.97 682.56 866.828 681.876 867.573
C 680.492 869.083 679.181 870.693 677.855 872.257
C 677.451 872.733 676.412 874.225 675.73 873.736
C 673.842 868.972 672.6 864.198 667.698 861.575
C 659.16 857.007 641.64 859.465 641.135 871.552
C 640.804 879.489 648.769 882.351 655.137 884.101
C 664.738 886.739 678.01 890.084 679.379 901.748
C 679.591 903.561 679.486 905.553 679.188 907.351
C 676.606 922.89 658.038 928.139 644.549 926.857
C 641.631 926.58 638.832 926.168 636.05 925.217
C 630.39 923.281 624.468 919.569 621.859 913.956
C 621.872 913.828 621.885 913.699 621.898 913.57 Z"
opacity="1" fill="rgb(83,83,83)" fill-rule="evenodd" />
<path d="
M 649.449 801.542
C 650.366 799.429 650.517 796.894 650.931 794.642
C 651.805 789.891 652.668 785.131 653.414 780.359
C 654.783 771.599 655.871 762.792 656.9 753.991
C 657.636 747.695 658.713 741.122 658.313 734.765
C 667.619 734.109 677.169 734.77 686.503 734.729
C 691.504 734.707 696.505 734.7 701.505 734.704
C 703.818 734.705 706.255 734.434 708.549 734.712
C 708.73 737.233 708.085 739.865 708.393 742.393
C 704.93 742.482 701.192 741.425 697.737 741.038
C 691.641 740.355 685.628 740.26 679.506 740.016
C 676.473 739.895 672.307 739.369 669.396 740.258
C 668.774 746.112 667.926 751.962 667.111 757.792
C 666.749 760.381 665.707 763.678 666.054 766.279
C 672.969 765.87 679.96 766.203 686.885 765.797
C 689.878 765.621 693.872 764.243 696.793 764.897
C 696.607 767.364 695.839 769.89 695.807 772.339
C 688.532 771.766 681.285 771.415 673.983 771.356
C 671.348 771.335 667.436 770.603 665.011 771.646
C 663.461 780.357 662.621 789.304 661.633 798.093
C 670.509 798.052 679.477 797.929 688.339 797.215
C 693.085 796.832 698.284 795.351 703.026 795.761
C 703.327 798.211 701.672 801.113 701.133 803.498
C 697.777 803.945 693.907 803.377 690.498 803.36
C 682.498 803.321 674.498 803.277 666.498 803.29
C 662.664 803.297 658.83 803.28 654.997 803.271
C 653.132 803.267 650.87 803.635 649.087 803.055
C 649.183 802.533 649.293 802.048 649.449 801.542 Z"
opacity="1" fill="rgb(84,84,84)" fill-rule="evenodd" />
<path d="
M 758.923 772.108
C 760.146 754.095 773.452 738.647 790.972 734.376
C 807.341 730.386 826.507 736.959 831.248 754.564
C 832.273 758.373 832.649 762.267 832.377 766.209
C 831.265 782.346 820.329 797.265 804.885 802.46
C 790.236 807.388 771.876 805.356 763.131 791.269
C 761.675 788.923 760.588 786.203 759.899 783.532
C 758.928 779.765 758.66 775.984 758.923 772.108 Z
M 770.926 770.611
C 770.329 778.441 771.421 787.12 776.371 793.46
C 783.242 802.261 798.135 801.245 806.63 795.518
C 815.484 789.549 819.559 777.959 820.323 767.748
C 820.923 759.729 819.943 751.708 815.061 745.068
C 808.17 735.697 793.263 737.059 784.775 743.063
C 776.034 749.246 771.714 760.266 770.926 770.611 Z"
opacity="1" fill="rgb(83,83,83)" fill-rule="evenodd" />
<path d="
M 845.959 804.625
C 850.108 781.636 854.649 758.195 855.349 734.783
C 862.778 733.868 870.533 734.528 878.002 734.53
C 886.856 734.533 895.78 734.282 904.648 734.608
C 905.442 735.848 904.85 739.01 904.802 740.49
C 904.787 740.938 904.937 742.203 904.609 742.488
C 899.86 742.084 895.119 741.116 890.389 740.508
C 882.814 739.535 874.512 739.243 866.906 739.911
C 865.886 741.362 865.968 744.434 865.734 746.213
C 865.109 750.972 864.236 755.696 863.624 760.46
C 863.438 761.908 862.12 765.705 862.929 766.906
C 873.283 767.142 883.764 766.948 894.054 765.767
C 894.043 767.645 893.582 769.532 893.344 771.393
C 893.296 771.772 893.321 773.121 892.976 773.327
C 885.946 772.576 878.912 772.329 871.842 772.337
C 868.646 772.34 865.159 771.941 862.018 772.552
C 861.05 779.011 860.336 785.471 859.585 791.955
C 859.164 795.579 858.457 799.309 858.368 802.957
C 857.937 803.462 855.752 803.297 855.033 803.391
C 851.9 803.804 848.907 804.553 845.83 805.181
C 845.873 804.996 845.916 804.81 845.959 804.625 Z"
opacity="1" fill="rgb(83,83,82)" fill-rule="evenodd" />

</svg>